<svg width="17" height="17" viewBox="0 0 17 17" fill="#000000 !important" xmlns="http://www.w3.org/2000/svg">
<path d="M5.9199 16.2191L5.59552 13.6241C5.41982 13.5565 5.25438 13.4754 5.09922 13.3808C4.94406 13.2862 4.79188 13.1848 4.64266 13.0767L2.2301 14.0904L0 10.2384L2.08818 8.65702C2.07467 8.56241 2.06791 8.47132 2.06791 8.38374V7.83635C2.06791 7.74823 2.07467 7.65686 2.08818 7.56225L0 5.98091L2.2301 2.12891L4.64266 3.1426C4.79134 3.03447 4.94677 2.9331 5.10896 2.83849C5.27114 2.74388 5.43333 2.66279 5.59552 2.59521L5.9199 0.000183105H10.3801L10.7045 2.59521C10.8802 2.66279 11.0459 2.74388 11.2016 2.83849C11.3573 2.9331 11.5092 3.03447 11.6573 3.1426L14.0699 2.12891L16.3 5.98091L14.2118 7.56225C14.2253 7.65686 14.2321 7.74823 14.2321 7.83635V8.38293C14.2321 8.47105 14.2186 8.56241 14.1915 8.65702L16.2797 10.2384L14.0496 14.0904L11.6573 13.0767C11.5087 13.1848 11.3532 13.2862 11.191 13.3808C11.0289 13.4754 10.8667 13.5565 10.7045 13.6241L10.3801 16.2191H5.9199ZM7.33906 14.5972H8.94067L9.2245 12.4482C9.64349 12.3401 10.0322 12.1814 10.3906 11.9722C10.7491 11.7629 11.0767 11.5094 11.3735 11.2115L13.3806 12.0427L14.1713 10.6641L12.4277 9.34633C12.4953 9.15711 12.5426 8.95789 12.5697 8.74866C12.5967 8.53944 12.6102 8.32643 12.6102 8.10964C12.6102 7.89338 12.5967 7.68065 12.5697 7.47142C12.5426 7.2622 12.4953 7.06271 12.4277 6.87295L14.1713 5.55516L13.3806 4.17655L11.3735 5.02804C11.0762 4.71718 10.7485 4.45714 10.3906 4.24791C10.0327 4.03869 9.64403 3.87975 9.2245 3.77108L8.96095 1.62207H7.35933L7.0755 3.77108C6.65651 3.8792 6.26807 4.03815 5.91017 4.24791C5.55227 4.45768 5.22438 4.71096 4.92649 5.00777L2.9194 4.17655L2.12873 5.55516L3.87226 6.85267C3.80468 7.05541 3.75738 7.25814 3.73035 7.46088C3.70332 7.66362 3.6898 7.87987 3.6898 8.10964C3.6898 8.32589 3.70332 8.53538 3.73035 8.73812C3.75738 8.94086 3.80468 9.14359 3.87226 9.34633L2.12873 10.6641L2.9194 12.0427L4.92649 11.1912C5.22384 11.5021 5.55173 11.7624 5.91017 11.9722C6.26861 12.1819 6.65705 12.3406 7.0755 12.4482L7.33906 14.5972ZM8.19055 10.9479C8.97446 10.9479 9.64349 10.6709 10.1976 10.1167C10.7518 9.56258 11.0289 8.89355 11.0289 8.10964C11.0289 7.32572 10.7518 6.65669 10.1976 6.10255C9.64349 5.5484 8.97446 5.27133 8.19055 5.27133C7.39312 5.27133 6.72057 5.5484 6.17292 6.10255C5.62526 6.65669 5.3517 7.32572 5.35224 8.10964C5.35224 8.89355 5.62607 9.56258 6.17373 10.1167C6.72138 10.6709 7.39366 10.9479 8.19055 10.9479Z" fill="white"/>
</svg>
